<?xml version="1.0" encoding="utf-8"?>
<!-- Generator: Adobe Illustrator 23.0.3, SVG Export Plug-In . SVG Version: 6.00 Build 0)  -->
<svg version="1.1" id="Calque_1" xmlns="http://www.w3.org/2000/svg" xmlns:xlink="http://www.w3.org/1999/xlink" x="0px" y="0px"
	 viewBox="0 0 57.5 43" style="enable-background:new 0 0 57.5 43;" xml:space="preserve">
<style type="text/css">
	.st0{fill:#000;}
	.st1{enable-background:new    ;}
</style>
<title>Fichier 3</title>
<g>
	<g id="Calque_1-2">
		<path class="st0" d="M36.2,30.8l2.2,1.3c-5.8,9.3-18.1,12.2-27.5,6.3c-2.6-1.6-4.7-3.7-6.3-6.3l4-2.3c0.4-0.2,0.5-0.7,0.3-1
			c0,0,0,0,0,0l-0.1-0.1c0,0,0-0.1-0.1-0.1c-4.1-6.9-1.9-15.9,5.1-20s15.9-1.9,20,5.1c0.2,0.3,0.4,0.6,0.5,0.9h1.7
			c-0.1-0.1-0.1-0.3-0.2-0.4l3.3-1.9c0.4,0.8,0.7,1.6,1,2.4h1.6C38.1,3.4,25.8-2.7,14.6,1.1s-17.3,16-13.5,27.3s16,17.3,27.3,13.5
			c5.5-1.9,10-5.8,12.5-11L36.2,30.8z M38.4,10.9l-3.3,1.9c-0.9-1.4-1.9-2.6-3.2-3.7c-0.5-0.4-1.1-0.8-1.6-1.2l1.9-3.3
			C34.7,6.3,36.8,8.4,38.4,10.9z M22.4,1.6c3,0.1,5.9,0.9,8.5,2.3L29,7.2c-2-1.1-4.3-1.7-6.6-1.8L22.4,1.6z M20.8,1.6v3.8
			c-2.3,0.1-4.6,0.7-6.6,1.7l-1.9-3.3C14.9,2.4,17.8,1.7,20.8,1.6L20.8,1.6z M10.9,4.6l1.9,3.3c-0.6,0.4-1.1,0.7-1.6,1.2
			C10,10.1,8.9,11.4,8,12.8l-3.4-1.9C6.2,8.3,8.4,6.2,10.9,4.6z M3.9,12.2l3.3,1.9c-1.1,2.1-1.7,4.3-1.8,6.6H1.6
			C1.7,17.7,2.5,14.8,3.9,12.2z M1.6,22.3h3.8c0.1,2.3,0.7,4.6,1.8,6.6l-3.3,1.9C2.5,28.2,1.7,25.3,1.6,22.3z"/>
		<path class="st0" d="M20.8,30.8v0.4c-1.2,0.4-1.8,1.7-1.4,2.9c0.2,0.7,0.8,1.2,1.4,1.4v1.7h1.5v-1.7c1.2-0.4,1.8-1.7,1.4-2.9
			c-0.2-0.6-0.7-1.2-1.4-1.4v-0.4H20.8z"/>
		<g class="st1">
			<path class="st0" d="M23.8,20.9l-2.4-0.4c0.3-1,0.7-1.7,1.4-2.1s1.6-0.7,2.9-0.7c1.2,0,2,0.1,2.6,0.4c0.6,0.3,1,0.6,1.2,1
				c0.2,0.4,0.3,1.2,0.3,2.3l0,3c0,0.9,0,1.5,0.1,1.9c0.1,0.4,0.2,0.9,0.5,1.3h-2.6c-0.1-0.2-0.2-0.4-0.3-0.8c0-0.2-0.1-0.3-0.1-0.3
				c-0.4,0.4-0.9,0.8-1.4,1c-0.5,0.2-1,0.3-1.6,0.3c-1,0-1.8-0.3-2.4-0.8c-0.6-0.5-0.9-1.2-0.9-2.1c0-0.6,0.1-1.1,0.4-1.5
				c0.3-0.4,0.6-0.8,1.1-1c0.5-0.2,1.2-0.4,2.1-0.6c1.2-0.2,2.1-0.4,2.5-0.6V21c0-0.5-0.1-0.9-0.4-1.1c-0.2-0.2-0.7-0.3-1.4-0.3
				c-0.5,0-0.8,0.1-1.1,0.3S23.9,20.4,23.8,20.9z M27.3,23c-0.3,0.1-0.9,0.2-1.6,0.4c-0.7,0.2-1.2,0.3-1.4,0.5
				c-0.3,0.2-0.5,0.5-0.5,0.9c0,0.4,0.1,0.7,0.4,0.9c0.3,0.3,0.6,0.4,1,0.4c0.5,0,0.9-0.2,1.3-0.5c0.3-0.2,0.5-0.5,0.6-0.9
				c0.1-0.2,0.1-0.6,0.1-1.3V23z"/>
		</g>
		<g class="st1">
			<path class="st0" d="M36.4,27.7l-4-9.9h2.7l1.9,5l0.5,1.7c0.1-0.4,0.2-0.7,0.3-0.8c0.1-0.3,0.2-0.6,0.3-0.8l1.9-5h2.7l-3.9,9.9
				H36.4z"/>
		</g>
		<g class="st1">
			<path class="st0" d="M45,28.4l3,0.4c0,0.3,0.2,0.6,0.3,0.7c0.2,0.2,0.6,0.3,1.2,0.3c0.7,0,1.2-0.1,1.5-0.3
				c0.2-0.1,0.4-0.4,0.5-0.7c0.1-0.2,0.1-0.6,0.1-1.2v-1.4c-0.8,1.1-1.8,1.6-3,1.6c-1.3,0-2.4-0.6-3.1-1.7c-0.6-0.9-0.9-2-0.9-3.3
				c0-1.7,0.4-2.9,1.2-3.8c0.8-0.9,1.8-1.3,3-1.3c1.2,0,2.2,0.5,3,1.6v-1.4h2.4v8.8c0,1.2-0.1,2-0.3,2.6s-0.5,1-0.8,1.4
				c-0.3,0.3-0.8,0.6-1.4,0.8c-0.6,0.2-1.3,0.3-2.2,0.3c-1.7,0-2.9-0.3-3.6-0.9c-0.7-0.6-1-1.3-1-2.2C44.9,28.6,44.9,28.5,45,28.4z
				 M47.3,22.6c0,1,0.2,1.8,0.6,2.3s0.9,0.7,1.5,0.7c0.6,0,1.2-0.2,1.6-0.7s0.7-1.2,0.7-2.2c0-1-0.2-1.8-0.6-2.3
				c-0.4-0.5-1-0.7-1.6-0.7c-0.6,0-1.1,0.2-1.5,0.7C47.5,20.8,47.3,21.6,47.3,22.6z"/>
		</g>
	</g>
</g>
</svg>
