<svg xmlns="http://www.w3.org/2000/svg" viewBox="0 0 24 24"><defs><style>.cls-1{fill:#000;}</style></defs><title>Fichier 1</title><g id="Calque_2" data-name="Calque 2"><g id="Calque_1-2" data-name="Calque 1"><path class="cls-1" d="M3.5,5A1.5,1.5,0,1,1,5,3.5,1.5,1.5,0,0,1,3.5,5Zm0-2a.5.5,0,1,0,.5.5A.5.5,0,0,0,3.5,3Z"/><path class="cls-1" d="M3.5,10a.49.49,0,0,1-.41-.22C2.77,9.33,0,5.26,0,3.5a3.5,3.5,0,0,1,7,0C7,5.26,4.23,9.33,3.91,9.78A.49.49,0,0,1,3.5,10Zm0-9A2.5,2.5,0,0,0,1,3.5c0,1,1.4,3.42,2.5,5.1C4.6,6.92,6,4.47,6,3.5A2.5,2.5,0,0,0,3.5,1Z"/><path class="cls-1" d="M19.5,17A2.5,2.5,0,1,1,22,14.5,2.5,2.5,0,0,1,19.5,17Zm0-4A1.5,1.5,0,1,0,21,14.5,1.5,1.5,0,0,0,19.5,13Z"/><path class="cls-1" d="M19.5,24a.48.48,0,0,1-.43-.25c-.42-.7-4.07-7-4.07-9.25a4.5,4.5,0,0,1,9,0c0,2.28-3.65,8.55-4.07,9.25A.48.48,0,0,1,19.5,24Zm0-13A3.5,3.5,0,0,0,16,14.5c0,1.51,2.23,5.76,3.5,8,1.27-2.24,3.5-6.49,3.5-8A3.5,3.5,0,0,0,19.5,11Z"/><path class="cls-1" d="M17.5,24a10.23,10.23,0,0,1-2.08-.19.5.5,0,0,1-.39-.59.51.51,0,0,1,.59-.39A9.72,9.72,0,0,0,17.5,23a.5.5,0,0,1,0,1Zm-3.82-.89a.45.45,0,0,1-.27-.08,4.38,4.38,0,0,1-1.51-1.6.49.49,0,0,1,.18-.68.51.51,0,0,1,.69.19A3.38,3.38,0,0,0,14,22.19a.5.5,0,0,1,.15.69A.49.49,0,0,1,13.68,23.11Zm-2-3.3a.5.5,0,0,1-.49-.4,17.41,17.41,0,0,1-.26-2.05.49.49,0,0,1,.46-.53.5.5,0,0,1,.54.45,16.63,16.63,0,0,0,.24,1.93.49.49,0,0,1-.39.59Zm-.4-4a.49.49,0,0,1-.49-.45,13.79,13.79,0,0,0-.27-1.92.49.49,0,0,1,.37-.6.5.5,0,0,1,.6.38,14.37,14.37,0,0,1,.29,2,.49.49,0,0,1-.45.54Zm-1-3.82a.48.48,0,0,1-.42-.23,3.32,3.32,0,0,0-1.26-1.15.5.5,0,0,1-.21-.68.51.51,0,0,1,.67-.21,4.21,4.21,0,0,1,1.63,1.5.5.5,0,0,1-.14.69A.56.56,0,0,1,10.27,12ZM6.93,10.09H6.86A11.5,11.5,0,0,0,5.5,10h0a.5.5,0,1,1,0-1A10,10,0,0,1,7,9.1a.5.5,0,0,1,.43.56A.51.51,0,0,1,6.93,10.09Z"/></g></g></svg>
