<svg xmlns="http://www.w3.org/2000/svg" viewBox="0 0 64 42.04"><defs><style>.cls-1{fill:#000;}</style></defs><title>Fichier 1</title><g id="Calque_2" data-name="Calque 2"><g id="Calque_1-2" data-name="Calque 1"><path class="cls-1" d="M0,25v8.88a3.23,3.23,0,0,0,3.23,3.23H8.09a6,6,0,0,0,11.82,0H45.09a6,6,0,0,0,11.82,0h4.71A2.38,2.38,0,0,0,64,34.71V30.4a6.53,6.53,0,0,0-4.94-6.34l-8.87-2.21a19.35,19.35,0,0,0-16.26-8.77H20.42a11.38,11.38,0,0,0-9.57,5.19A6.88,6.88,0,0,1,6.18,21.2l-3.48.58A3.23,3.23,0,0,0,0,25ZM47,36.08a4,4,0,1,1,4,4A4,4,0,0,1,47,36.08Zm-37,0a4,4,0,1,1,4,4A4,4,0,0,1,10,36.08ZM2.05,25a1.22,1.22,0,0,1,1-1.21l3.48-.58a8.9,8.9,0,0,0,6-3.82,9.35,9.35,0,0,1,7.89-4.28H33.93a17.38,17.38,0,0,1,14.79,8.17,1,1,0,0,0,.6.44L58.57,26A4.53,4.53,0,0,1,62,30.4v4.31a.38.38,0,0,1-.38.37H56.91a6,6,0,0,0-11.82,0H19.91a6,6,0,0,0-11.82,0H3.23A1.23,1.23,0,0,1,2,33.85Z"/><path class="cls-1" d="M54.38,0a8.17,8.17,0,1,0,8.17,8.17A8.17,8.17,0,0,0,54.38,0Zm0,14.36a6.2,6.2,0,1,1,6.19-6.19A6.2,6.2,0,0,1,54.38,14.36Z"/><polygon class="cls-1" points="57.77 10.15 55.37 7.76 55.37 3.2 53.4 3.2 53.4 8.57 56.37 11.55 57.77 10.15"/></g></g></svg>
